<?xml version="1.0" encoding="UTF-8" standalone="no"?>
<!-- Created with Inkscape (http://www.inkscape.org/) -->

<svg
   version="1.1"
   id="svg1"
   width="129.84267"
   height="96.379997"
   viewBox="0 0 129.84267 96.379997"
   xmlns="http://www.w3.org/2000/svg"
   xmlns:svg="http://www.w3.org/2000/svg">
  <defs
     id="defs1" />
  <g
     id="g1">
    <path
       id="path1"
       d="m 8.01837,0 c 0,4.42847 -3.5899,8.01837 -8.01837,8.01837 -4.42847,0 -8.01837,-3.5899 -8.01837,-8.01837 0,-4.42847 3.5899,-8.01837 8.01837,-8.01837 4.42847,0 8.01837,3.5899 8.01837,8.01837 z"
       style="fill:#cb3c33;fill-opacity:1;fill-rule:nonzero;stroke:none"
       transform="matrix(1.3333333,0,0,-1.3333333,49.994667,10.690667)" />
    <path
       id="path2"
       d="m 8.01837,0 c 0,4.42847 -3.5899,8.01837 -8.01837,8.01837 -4.42847,0 -8.01837,-3.5899 -8.01837,-8.01837 0,-4.42847 3.5899,-8.01837 8.01837,-8.01837 4.42847,0 8.01837,3.5899 8.01837,8.01837 z"
       style="fill:#4063d8;fill-opacity:1;fill-rule:nonzero;stroke:none"
       transform="matrix(1.3333333,0,0,-1.3333333,10.690667,48.190667)" />
    <path
       id="path3"
       d="m 8.01837,0 c 0,4.42847 -3.5899,8.01837 -8.01837,8.01837 -4.42847,0 -8.01837,-3.5899 -8.01837,-8.01837 0,-4.42847 3.5899,-8.01837 8.01837,-8.01837 4.42847,0 8.01837,3.5899 8.01837,8.01837 z"
       style="fill:#4063d8;fill-opacity:1;fill-rule:nonzero;stroke:none"
       transform="matrix(1.3333333,0,0,-1.3333333,89.297333,48.190667)" />
    <path
       id="path4"
       d="m 8.01837,0 c 0,4.42847 -3.5899,8.01837 -8.01837,8.01837 -4.42847,0 -8.01837,-3.5899 -8.01837,-8.01837 0,-4.42847 3.5899,-8.01837 8.01837,-8.01837 4.42847,0 8.01837,3.5899 8.01837,8.01837 z"
       style="fill:#389826;fill-opacity:1;fill-rule:nonzero;stroke:none"
       transform="matrix(1.3333333,0,0,-1.3333333,59.442667,85.689333)" />
    <path
       id="path5"
       d="m 8.01837,0 c 0,4.42847 -3.5899,8.01837 -8.01837,8.01837 -4.42847,0 -8.01837,-3.5899 -8.01837,-8.01837 0,-4.42847 3.5899,-8.01837 8.01837,-8.01837 4.42847,0 8.01837,3.5899 8.01837,8.01837 z"
       style="fill:#389826;fill-opacity:1;fill-rule:nonzero;stroke:none"
       transform="matrix(1.3333333,0,0,-1.3333333,119.152,85.689333)" />
    <path
       id="path6"
       d="M -5.94539,-5.6723 -23.53244,-22.4522"
       style="fill:none;stroke:#9558b2;stroke-width:1.19553;stroke-linecap:butt;stroke-linejoin:miter;stroke-miterlimit:10;stroke-dasharray:none;stroke-opacity:1"
       transform="matrix(1.3333333,0,0,-1.3333333,49.994667,10.690667)" />
    <path
       id="path7"
       d="M 5.94539,-5.6723 23.53242,-22.4522"
       style="fill:none;stroke:#9558b2;stroke-width:1.19553;stroke-linecap:butt;stroke-linejoin:miter;stroke-miterlimit:10;stroke-dasharray:none;stroke-opacity:1"
       transform="matrix(1.3333333,0,0,-1.3333333,49.994667,10.690667)" />
    <path
       id="path8"
       d="M 24.35976,-34.55304 12.20464,-49.82048"
       style="fill:none;stroke:#9558b2;stroke-width:1.19553;stroke-linecap:butt;stroke-linejoin:miter;stroke-miterlimit:10;stroke-dasharray:none;stroke-opacity:1"
       transform="matrix(1.3333333,0,0,-1.3333333,49.994667,10.690667)" />
    <path
       id="path9"
       d="M 34.59567,-34.55304 46.75078,-49.82048"
       style="fill:none;stroke:#9558b2;stroke-width:1.19553;stroke-linecap:butt;stroke-linejoin:miter;stroke-miterlimit:10;stroke-dasharray:none;stroke-opacity:1"
       transform="matrix(1.3333333,0,0,-1.3333333,49.994667,10.690667)" />
  </g>
</svg>
